<?xml version="1.0" standalone="no"?>
<!DOCTYPE svg PUBLIC "-//W3C//DTD SVG 20010904//EN"
 "http://www.w3.org/TR/2001/REC-SVG-20010904/DTD/svg10.dtd">
<svg version="1.0" xmlns="http://www.w3.org/2000/svg"
 width="624.000000pt" height="624.000000pt" viewBox="0 0 624.000000 624.000000"
 preserveAspectRatio="xMidYMid meet">
<metadata>
Created by potrace 1.14, written by Peter Selinger 2001-2017
</metadata>
<g transform="translate(0.000000,624.000000) scale(0.100000,-0.100000)"
fill="#000000" stroke="none">
<path d="M292 4533 c-6 -2 -9 -10 -5 -16 8 -13 11 -58 14 -194 l2 -83 29 0
c25 0 27 2 18 19 -7 14 -7 22 0 26 8 5 8 11 1 19 -6 7 -8 16 -4 19 3 4 8 54 9
112 l3 105 -27 -1 c-15 0 -33 -3 -40 -6z"/>
<path d="M474 4528 c-13 -20 -13 -37 -2 -44 6 -4 5 -10 -3 -15 -12 -8 -11 -11
1 -19 11 -7 11 -10 2 -10 -8 0 -10 -6 -5 -17 5 -10 8 -48 8 -85 0 -40 4 -68
10 -68 5 0 3 -4 -5 -10 -12 -8 -12 -10 3 -16 38 -14 44 0 46 123 1 65 3 129 4
143 2 20 -3 26 -25 28 -14 2 -30 -3 -34 -10z"/>
<path d="M5779 4533 c-4 -24 4 -257 10 -285 0 -5 13 -8 27 -8 20 0 24 3 16 13
-6 7 -8 18 -3 25 4 6 6 39 6 72 -1 33 2 63 7 66 4 3 5 11 1 17 -11 18 -12 37
-2 37 6 0 5 9 -2 21 -8 16 -8 20 1 14 9 -6 9 -2 1 14 -11 20 -60 31 -62 14z"/>
<path d="M5956 4532 c-9 -15 -3 -72 8 -72 6 0 4 -5 -4 -10 -11 -7 -12 -12 -3
-21 8 -8 9 -18 3 -30 -7 -11 -7 -20 0 -24 7 -4 7 -13 0 -26 -6 -11 -7 -19 -2
-19 11 0 10 -49 -1 -67 -8 -12 26 -28 41 -19 5 3 10 47 11 98 1 51 3 115 4
142 1 46 -1 50 -25 53 -15 2 -29 0 -32 -5z"/>
<path d="M818 4437 c-16 -5 -18 -10 -9 -21 8 -10 49 -13 171 -12 169 1 173 0
162 -47 -4 -15 -14 -18 -61 -17 -98 3 -94 6 -66 -46 35 -66 11 -104 -46 -74
-10 6 -19 17 -19 24 0 8 -7 17 -16 20 -8 3 -12 10 -9 16 3 5 1 10 -6 10 -7 0
-10 3 -6 6 3 3 1 18 -4 33 -7 20 -16 28 -32 27 -18 -1 -22 -7 -23 -33 0 -18 3
-33 8 -33 4 0 8 -7 8 -15 0 -8 4 -15 9 -15 5 0 12 -11 15 -25 4 -14 13 -25 22
-25 8 0 13 -4 10 -9 -14 -22 93 -43 118 -22 9 7 16 10 16 7 0 -4 6 -1 14 6 8
7 12 16 10 20 -2 4 0 9 6 13 5 3 10 11 10 16 0 6 -6 7 -12 3 -9 -5 -9 -2 1 9
7 10 9 17 3 17 -24 0 -4 35 22 38 18 2 26 0 21 -7 -3 -6 -2 -11 3 -11 5 0 9
-34 8 -75 l-2 -75 34 0 33 0 -3 120 c-2 66 0 126 4 134 7 12 22 14 71 10 68
-6 81 -13 82 -47 0 -25 -28 -46 -63 -47 -20 0 -22 -4 -16 -22 4 -13 14 -29 23
-36 9 -8 10 -10 2 -6 -9 5 -12 3 -7 -5 10 -16 65 -43 75 -36 5 3 11 0 13 -7 3
-8 15 -9 46 -1 47 12 62 3 56 -35 -4 -20 0 -23 23 -20 33 4 41 29 32 101 -3
26 -3 50 0 52 3 1 6 26 5 53 -1 44 2 52 24 62 60 27 3 32 -368 34 -204 0 -380
-2 -392 -7z m670 -46 c6 -13 7 -79 3 -122 -1 -4 -13 -14 -27 -24 -23 -15 -32
-16 -65 -5 -45 15 -57 36 -26 46 31 10 47 34 45 69 -1 17 1 35 5 41 10 17 57
14 65 -5z"/>
<path d="M1879 4440 c-24 -6 -38 -29 -20 -31 35 -4 51 -16 51 -38 0 -10 11
-28 25 -41 19 -18 32 -22 59 -17 50 8 55 -17 7 -33 -28 -9 -44 -9 -58 -1 -16
8 -24 7 -37 -8 -15 -17 -14 -20 29 -58 25 -22 62 -49 81 -59 35 -19 36 -19 50
0 10 14 11 23 3 33 -6 7 -14 11 -18 9 -3 -2 -17 7 -31 20 -23 23 -24 24 -4 24
11 0 36 14 54 30 18 17 30 30 26 30 -5 0 -4 6 2 13 13 15 13 19 2 57 -5 16 -6
31 -2 31 43 7 61 6 65 -5 3 -7 4 -66 3 -129 -2 -122 -1 -127 45 -127 19 0 20
7 18 124 0 69 1 128 4 133 7 11 93 11 104 0 4 -5 8 -21 9 -37 1 -22 -4 -30
-22 -34 -16 -4 -21 -11 -17 -26 3 -11 9 -17 14 -14 5 3 9 -1 9 -8 0 -7 12 -21
26 -31 20 -15 28 -16 40 -6 9 7 12 20 9 33 -5 17 -4 18 4 6 8 -11 11 -11 11
-2 0 8 12 12 38 10 40 -3 41 -4 90 -47 41 -35 76 -32 69 6 -3 18 1 24 17 28
40 9 61 0 61 -29 -1 -14 2 -26 6 -26 6 0 -5 -68 -13 -75 -1 -1 -18 -10 -36
-19 -18 -9 -30 -21 -27 -26 3 -5 1 -11 -4 -14 -5 -4 -4 -16 2 -30 13 -28 66
-45 109 -36 33 6 24 30 -13 34 -35 3 -49 14 -42 31 6 17 68 21 78 5 4 -6 12
-7 18 -4 7 4 9 4 5 0 -4 -5 4 -19 18 -33 13 -13 24 -28 24 -34 0 -5 12 -7 26
-5 28 5 45 16 25 16 -7 0 -9 4 -6 10 6 10 -39 59 -79 86 -23 15 -24 20 -24
132 -1 130 3 152 24 152 17 0 18 16 2 27 -13 8 -137 8 -145 0 -7 -8 28 -37 38
-32 5 4 9 1 9 -4 0 -16 2 -24 10 -46 10 -27 -11 -45 -51 -45 -18 0 -30 2 -27
6 3 3 2 20 -2 39 -5 21 -3 38 4 46 8 9 8 10 -1 5 -8 -4 -13 -1 -13 8 0 20 -31
36 -72 36 -29 0 -79 -19 -53 -20 6 0 2 -5 -7 -11 -28 -16 -23 -49 7 -49 18 0
25 5 25 20 0 12 7 20 18 20 18 0 54 -20 36 -20 -6 0 -11 -7 -11 -15 0 -8 5
-15 11 -15 7 0 7 -3 1 -8 -5 -4 -10 -14 -10 -22 0 -10 -8 -14 -25 -12 -14 1
-45 4 -68 5 -49 4 -61 16 -54 53 4 21 13 28 34 26 3 -1 12 5 18 13 10 12 9 16
-4 21 -21 8 -546 11 -577 4z m166 -42 c3 3 2 -5 -3 -18 -13 -35 -67 -41 -75
-8 -8 28 8 38 44 28 15 -5 30 -5 34 -2z"/>
<path d="M3072 4434 c-26 -19 6 -29 103 -31 50 -1 95 -2 101 -2 17 -1 13 -30
-5 -35 -9 -3 -36 -6 -61 -7 -77 -4 -108 -32 -100 -89 2 -16 38 -65 48 -66 4 0
20 -6 35 -12 16 -7 38 -12 50 -13 22 0 70 -17 54 -18 -16 -2 21 -30 46 -36 28
-7 30 3 9 42 -10 18 -10 28 1 50 13 25 12 30 -2 45 -11 11 -21 14 -31 8 -8 -5
-18 -6 -22 -4 -4 3 -13 -7 -18 -22 -9 -23 -14 -26 -42 -20 -61 12 -89 79 -40
97 13 5 22 5 22 -1 0 -6 9 -6 23 -1 12 4 41 6 64 4 l41 -4 -3 40 c-4 46 -7 44
94 43 82 -2 103 -19 77 -61 -7 -10 -5 -12 5 -6 10 5 11 5 4 -3 -5 -6 -26 -15
-45 -20 -27 -7 -34 -13 -32 -28 2 -10 8 -21 13 -22 5 -2 7 -8 4 -13 -7 -10 55
-50 66 -43 4 2 10 0 14 -6 7 -11 58 -14 69 -3 3 4 15 7 25 8 14 1 18 -5 17
-29 -1 -27 3 -31 30 -34 36 -4 39 5 31 91 -2 20 1 37 6 37 6 0 6 5 0 13 -8 11
-9 33 -4 102 1 17 8 21 41 21 29 0 40 -4 41 -15 4 -60 3 -94 -4 -98 -4 -2 -4
-9 0 -15 3 -7 7 -39 7 -72 1 -59 2 -61 29 -64 17 -2 27 2 28 10 6 71 2 238 -6
239 -5 0 -2 3 7 7 22 9 332 7 346 -2 6 -3 9 -14 7 -24 -2 -9 -4 -20 -4 -24 -1
-5 -9 -8 -19 -8 -10 0 -22 -3 -26 -7 -12 -12 -29 -10 -44 4 -17 16 -93 17
-126 1 -27 -12 -73 -78 -55 -78 6 0 7 -5 3 -12 -4 -6 1 -17 11 -25 11 -7 15
-13 10 -13 -14 0 27 -33 66 -54 38 -20 69 -17 69 8 0 8 -9 18 -20 21 -11 3
-20 11 -20 16 0 5 -6 9 -13 9 -8 0 -22 9 -32 20 -10 11 -14 20 -9 20 5 0 3 4
-4 8 -9 6 -7 14 8 30 35 38 122 25 90 -13 -9 -11 -9 -17 1 -28 19 -20 43 -10
58 24 7 16 17 27 21 24 5 -3 12 0 16 6 13 22 20 -10 18 -86 l-2 -75 33 0 32 0
-2 75 c-1 46 2 72 8 68 6 -4 7 -1 1 8 -22 35 -6 119 24 119 9 0 12 29 3 31 -3
0 -280 1 -615 2 -429 2 -613 -1 -624 -9z m579 -33 c7 -1 4 -111 -5 -139 -5
-14 -13 -21 -22 -18 -7 3 -16 1 -19 -4 -7 -12 -52 -3 -78 15 -16 11 -16 14 10
31 15 10 30 17 33 15 10 -5 17 35 10 59 -11 39 13 53 71 41z"/>
<path d="M4579 4428 c-13 -24 -5 -26 92 -24 121 3 123 1 124 -67 0 -32 -4 -57
-10 -57 -17 0 -75 39 -75 50 0 5 14 10 30 10 31 0 45 29 15 31 -39 3 -52 2
-74 -5 -61 -21 -82 -88 -42 -137 17 -21 28 -24 87 -24 56 0 68 -3 70 -17 1
-10 -2 -18 -7 -18 -4 0 -6 -7 -3 -15 4 -9 19 -15 38 -15 l31 0 0 132 0 133 43
1 c26 0 41 -4 39 -10 -3 -6 0 -19 4 -28 5 -9 5 -19 0 -22 -8 -5 -6 -67 4 -94
3 -7 0 -10 -5 -7 -12 8 -12 3 0 -29 5 -14 5 -28 1 -31 -5 -3 -7 -14 -4 -25 4
-15 14 -20 38 -20 33 0 39 10 22 38 -5 6 -4 12 0 12 5 0 8 16 8 35 0 19 -3 35
-7 35 -4 0 -4 10 1 23 5 14 5 30 0 40 -6 9 -6 17 -2 17 5 0 8 15 8 33 l0 32
125 -1 124 -1 1 -59 c0 -67 -9 -80 -38 -53 -12 10 -27 19 -34 19 -7 0 -13 7
-13 15 0 9 6 15 13 14 38 -5 48 1 37 21 -11 20 -41 22 -85 5 -43 -17 -71 -64
-52 -85 9 -10 9 -11 -3 -5 -12 7 -13 6 -3 -7 7 -8 10 -17 7 -20 -3 -3 9 -16
26 -28 25 -18 41 -21 89 -18 l58 4 -4 -33 c-4 -32 -3 -33 29 -33 32 0 33 1 33
45 1 25 -4 45 -10 45 -6 0 -7 3 0 8 6 4 10 43 10 87 l0 80 40 0 c38 0 40 -1
40 -33 0 -17 3 -32 8 -32 4 0 4 -8 -2 -17 -5 -9 -5 -26 -1 -38 5 -12 4 -28 0
-35 -5 -8 -4 -22 1 -32 5 -10 6 -18 2 -18 -5 0 -8 -13 -8 -28 -1 -24 4 -28 28
-30 38 -3 49 5 38 27 -5 9 -6 23 -1 30 4 8 4 26 0 41 -4 15 -3 34 2 43 6 11 5
17 -2 17 -7 0 -8 6 0 19 5 11 6 21 2 23 -15 5 8 68 24 68 9 0 14 7 12 17 -3
16 -36 17 -457 18 -415 0 -454 -1 -462 -17z m151 -150 c22 -13 40 -27 40 -31
0 -15 -29 -18 -56 -5 -27 13 -53 58 -33 58 5 0 28 -10 49 -22z m491 -20 c10
-17 1 -28 -22 -28 -25 0 -69 39 -62 56 4 11 11 11 41 -2 20 -8 40 -20 43 -26z"/>
<path d="M296 4193 c-3 -4 -6 -17 -6 -30 0 -20 5 -23 34 -23 36 0 50 17 35 41
-8 14 -52 22 -63 12z"/>
<path d="M473 4192 c-7 -4 -11 -16 -9 -27 2 -15 12 -21 39 -23 34 -3 37 -1 35
22 -1 14 -5 26 -8 27 -3 0 -14 2 -25 4 -11 2 -26 1 -32 -3z"/>
<path d="M5793 4184 c-3 -9 -12 -13 -21 -9 -12 4 -11 1 3 -15 18 -20 64 -25
57 -6 -2 5 1 12 8 16 7 5 6 11 -6 21 -10 8 -15 9 -11 3 4 -7 0 -14 -8 -17 -9
-4 -12 -1 -8 9 3 7 2 14 -1 14 -4 0 -9 -7 -13 -16z"/>
<path d="M5963 4187 c0 -7 -4 -19 -7 -28 -6 -14 -1 -16 26 -15 25 1 33 6 33
20 0 11 -6 21 -12 24 -7 2 -13 -1 -13 -8 0 -6 4 -9 8 -6 5 3 9 -1 9 -9 0 -10
-4 -12 -12 -5 -7 5 -16 6 -20 2 -5 -4 -5 1 -2 10 3 10 3 20 -2 22 -4 3 -8 0
-8 -7z"/>
<path d="M2987 3794 c-1 -1 -49 -4 -107 -8 -58 -3 -124 -8 -147 -11 -80 -9
-118 -15 -143 -19 -14 -2 -47 -7 -75 -10 -58 -7 -103 -15 -127 -22 -21 -6 -64
-15 -93 -19 -11 -2 -20 -4 -20 -5 0 -1 -10 -3 -23 -6 -68 -12 -322 -92 -397
-124 -24 -10 -46 -16 -49 -13 -3 4 -6 1 -6 -5 0 -7 -9 -12 -20 -12 -11 0 -20
-5 -20 -11 0 -5 -4 -7 -10 -4 -5 3 -10 1 -10 -4 0 -6 -3 -10 -7 -9 -8 2 -63
-23 -93 -41 -8 -5 -26 -14 -40 -20 -29 -12 -63 -33 -70 -42 -3 -4 -21 -15 -40
-25 -44 -24 -133 -90 -176 -131 -7 -7 -17 -13 -23 -13 -6 0 -10 -3 -9 -7 2 -5
0 -8 -4 -8 -4 0 -19 -16 -33 -35 -15 -19 -31 -34 -36 -32 -5 1 -9 -4 -9 -11 0
-7 -9 -19 -19 -27 -11 -7 -18 -17 -15 -22 3 -4 1 -8 -4 -8 -5 0 -17 -16 -26
-35 -9 -19 -22 -35 -28 -35 -6 0 -9 -3 -5 -6 3 -3 -5 -24 -19 -45 -13 -21 -22
-39 -20 -39 3 0 -2 -16 -10 -35 -8 -19 -11 -35 -8 -35 4 0 1 -7 -6 -15 -7 -8
-10 -21 -7 -30 4 -8 2 -17 -3 -20 -5 -3 -7 -14 -5 -25 2 -11 1 -20 -3 -20 -9
0 -8 -112 1 -127 4 -6 2 -15 -4 -19 -8 -4 -8 -8 0 -13 6 -4 11 -21 13 -39 1
-18 7 -32 12 -32 5 0 7 -3 4 -6 -9 -8 22 -94 33 -94 5 0 8 -3 7 -7 -4 -13 24
-73 33 -73 5 0 9 -7 9 -15 0 -8 5 -15 11 -15 5 0 8 -4 5 -9 -3 -5 1 -12 10
-15 9 -4 14 -9 11 -12 -3 -4 4 -15 16 -25 12 -10 19 -18 15 -19 -11 0 53 -60
64 -60 5 0 6 -4 3 -10 -3 -5 1 -10 10 -10 9 0 13 -4 10 -10 -3 -5 1 -10 9 -10
9 0 16 -7 16 -17 0 -9 3 -14 6 -11 3 4 19 -8 35 -24 16 -17 29 -27 29 -23 0 4
12 -4 26 -19 15 -14 31 -26 37 -26 6 0 17 -7 26 -15 22 -22 77 -56 136 -85 28
-14 52 -27 55 -30 20 -20 305 -136 380 -155 3 -1 12 -4 20 -8 26 -10 94 -31
110 -33 8 -1 33 -8 55 -14 40 -11 59 -15 105 -25 49 -10 70 -15 88 -19 11 -2
43 -7 72 -11 29 -4 62 -9 74 -11 223 -46 747 -50 1066 -9 25 3 56 8 70 10 14
2 41 7 60 10 19 3 46 8 60 10 14 3 34 7 45 9 52 10 207 49 270 68 39 11 75 21
80 23 6 1 17 4 25 7 8 3 38 14 65 23 28 10 70 27 95 38 25 11 51 20 58 20 6 0
12 4 12 9 0 4 6 8 14 8 7 0 19 7 26 15 7 9 15 13 18 11 8 -8 63 24 57 33 -3 5
4 7 15 4 11 -3 20 -1 20 4 0 5 16 15 35 23 19 8 35 18 35 22 0 5 5 6 10 3 6
-3 10 -2 10 4 0 6 11 13 25 17 14 3 30 15 36 26 6 11 13 17 16 14 3 -3 11 0
19 7 34 30 44 37 44 30 1 -4 6 2 13 14 7 12 17 23 22 25 6 2 9 6 8 10 -2 4 4
5 12 2 8 -4 15 -1 15 6 0 6 4 8 10 5 6 -3 7 1 4 9 -4 11 0 16 10 16 9 0 16 5
16 10 0 6 8 10 17 10 9 0 14 3 11 6 -8 7 34 50 45 46 4 -1 8 2 8 8 1 5 2 16 3
23 1 6 9 11 19 11 9 -1 15 2 12 6 -3 5 5 21 18 37 37 46 58 83 52 93 -3 5 0
12 6 16 8 5 9 3 4 -6 -5 -9 -4 -11 3 -6 7 4 12 16 12 27 0 14 4 18 13 13 9 -6
9 -4 -1 8 -10 13 -10 17 4 22 9 4 14 9 11 13 -4 3 -1 15 4 26 12 22 20 61 20
95 -1 15 3 21 11 16 7 -5 8 -3 3 5 -4 7 -9 54 -11 105 -4 113 -7 127 -37 196
-6 14 -10 28 -9 33 1 4 -3 7 -10 7 -6 0 -8 3 -5 7 4 3 -1 15 -10 25 -16 18
-16 19 3 13 17 -5 17 -5 -1 5 -11 6 -26 24 -34 41 -7 16 -26 43 -43 59 -16 17
-27 30 -23 30 10 0 -135 140 -176 169 -21 16 -35 31 -31 35 3 4 -1 4 -10 1 -9
-4 -18 0 -21 9 -4 9 -13 16 -22 16 -8 0 -15 3 -15 8 0 4 -16 16 -35 26 -19 11
-35 23 -35 28 0 5 -4 7 -9 3 -5 -3 -12 -1 -15 4 -8 12 -178 96 -188 93 -5 -1
-8 3 -8 10 0 6 -3 9 -6 5 -3 -3 -20 2 -37 12 -18 9 -54 25 -82 35 -27 10 -57
20 -65 23 -8 4 -18 7 -22 8 -5 2 -9 3 -10 5 -2 1 -11 3 -20 6 -10 2 -26 6 -35
8 -10 3 -18 5 -18 6 0 1 -7 3 -15 5 -260 69 -392 98 -500 110 -14 2 -41 6 -60
9 -88 15 -620 40 -633 30z"/>
</g>
</svg>
